# xmcd CD database file
#
# Track frame offsets:
#	150
#	23281
#	42481
#	55726
#	81900
#	98567
#	123042
#	140620
#	161352
#	182751
#	193274
#	207620
#	235358
#	253658
#	276228
#	292038
#	311322
#
# Disc length: 4443 seconds
#
# Revision: 0
# Processed by: cddbd v1.4PL0 Copyright (c) Steve Scherf et al.
# Submitted via: CDex 1.40Release
#
DISCID=f0115911
DTITLE=Nasi e Os Irmãos do Blues - O Rei da Cocada Preta - CD 2 (ao vivo)
DYEAR=1900
DGENRE=Blues
TTITLE0=Apresentação
TTITLE1=Blues do Assobio
TTITLE2=Gangster do Amor
TTITLE3=Poeira nos Olhos
TTITLE4=Dama da Noite
TTITLE5=Má Noite
TTITLE6=Vampiro
TTITLE7=Os Brutos Também Amam
TTITLE8=Quero Ser o Seu Cachorro
TTITLE9=Rebel Dog Blues
TTITLE10=Não Tem Acordo
TTITLE11=Dos Males o Menor
TTITLE12=O Rei da Cocada Preta
TTITLE13=Não Quero Ajuda
TTITLE14=Amigo da Onça
TTITLE15=Mamãe Eu Quero
TTITLE16=I Got You (I Feel Good)
EXTD=ID3G: 0
EXTT0=
EXTT1=
EXTT2=
EXTT3=
EXTT4=
EXTT5=
EXTT6=
EXTT7=
EXTT8=
EXTT9=
EXTT10=
EXTT11=
EXTT12=
EXTT13=
EXTT14=
EXTT15=
EXTT16=
PLAYORDER=
